<svg xmlns="http://www.w3.org/2000/svg" viewBox="0 0 24 24" fill="#1d9bf0">
<path d="M21.54 6.95c.01.2.01.39.01.59 0 6.02-4.58 12.96-12.96 12.96-2.57 0-4.95-.75-6.96-2.03.36.04.72.06 1.09.06 2.13 0 4.09-.73 5.64-1.95a4.57 4.57 0 0 1-4.27-3.17c.29.04.58.07.89.07.42 0 .83-.06 1.22-.16a4.56 4.56 0 0 1-3.66-4.47v-.06c.61.34 1.31.54 2.06.56a4.56 4.56 0 0 1-1.41-6.08 12.94 12.94 0 0 0 9.39 4.76 4.56 4.56 0 0 1 7.76-4.15 9.1 9.1 0 0 0 2.89-1.1 4.57 4.57 0 0 1-2 2.52 9.07 9.07 0 0 0 2.62-.72 9.78 9.78 0 0 1-2.28 2.36z"/>
</svg>
